<svg width="353" height="211" viewBox="0 0 353 211" fill="none" xmlns="http://www.w3.org/2000/svg">
<mask id="mask0_3_1838" style="mask-type:luminance" maskUnits="userSpaceOnUse" x="0" y="0" width="353" height="211">
<path d="M222.265 0C195.707 18.3677 151.998 48.8987 135.584 74.5767C91.0453 68.4336 45.0616 68.5872 0 75.0989C53.3915 113.278 100.82 157.6 140.81 206.622C141.886 207.943 143.054 209.325 144.775 210C147.265 210.983 150.246 210.185 152.92 209.448C187.808 199.742 224.294 196.67 260.441 193.66C285.308 166.876 316.876 144.7 352.163 129.25L222.265 0Z" fill="white"/>
</mask>
<g mask="url(#mask0_3_1838)">
<path d="M75.9223 118.868C98.8834 109.961 123.689 107.135 148.156 106.244C149.97 106.183 149.97 103.357 148.156 103.449C123.474 104.371 98.3609 107.196 75.1846 116.196C73.494 116.81 74.2317 119.513 75.9223 118.868Z" fill="#C9C7C5"/>
</g>
</svg>
